<?xml version="1.0" encoding="utf-8"?>
<!-- Generator: Adobe Illustrator 27.2.0, SVG Export Plug-In . SVG Version: 6.00 Build 0)  -->
<svg version="1.1" id="Layer_2_00000009575875998624007830000007901486079863985812_"
     xmlns="http://www.w3.org/2000/svg" x="0px" y="0px"
     viewBox="0 0 83.8 27.1"
     style="enable-background:new 0 0 83.8 27.1;" xml:space="preserve">
<style type="text/css">
	.st0{fill:#FFFFFF;}
	.st1{fill:#3BCBBE;}
</style>
    <g id="Layer_1-2">
	<circle class="st0" cx="13.5" cy="13.5" r="13.5"/>
        <path class="st1" d="M6,14.4L17.2,2.9c0.2-0.2,0.5,0,0.4,0.3l-4.2,7.9c-0.1,0.2,0,0.4,0.2,0.4h7.3c0.2,0,0.4,0.3,0.2,0.5L8.4,24.1
		C8.2,24.4,7.8,24,8,23.8l6-8.5c0.1-0.2,0-0.4-0.2-0.4H6.1C5.9,14.9,5.8,14.6,6,14.4L6,14.4L6,14.4z"/>
        <g>
		<rect x="35.1" y="5.9" class="st0" width="2" height="9.6"/>
            <path class="st0" d="M56.2,10l-2.4-1.5L56,6.2l-1.4-1.3l-2.8,3v1.6l3.2,2.1c0.3,0.2,0.5,0.5,0.5,0.8c0,0.3-0.1,0.5-0.3,0.7
			s-0.4,0.3-0.7,0.3h-3.2h-1.9h0h-1.9l0,0h0h-1.9h-1.9h0h-1.9c0,0,0,0,0,0c0,0,0,0,0,0h-0.6c-0.2,0-0.3-0.1-0.5-0.2
			s-0.2-0.3-0.2-0.5v-2.5H39h-0.6v4.7c0,0.5,0,0.9-0.1,1.2c-0.1,0.3-0.3,0.5-0.6,0.8h0c-0.3,0.2-0.8,0.6-1.4,0.9l0.8,1.7
			c0.9-0.5,1.6-0.9,2.1-1.3c0.5-0.4,0.8-0.9,1-1.4c0.2-0.4,0.2-0.9,0.3-1.5c0.2,0.1,0.4,0.1,0.7,0.1h0.6c0,0,0,0,0,0c0,0,0,0,0,0
			h1.9h0h1.9h1.9h0l0,0h1.9h0h1.9h3.2c0.5,0,1-0.1,1.5-0.4c0.5-0.3,0.8-0.7,1.1-1.1c0.3-0.5,0.4-1,0.4-1.5c0-0.5-0.1-1-0.3-1.4
			C56.9,10.6,56.6,10.2,56.2,10z"/>
            <rect x="76.6" y="19.2" class="st0" width="1.8" height="1.8"/>
            <path class="st0" d="M81.8,10.1c-0.1,0-0.2,0-0.2,0l-3.1-1.4c-0.2-0.1-0.4-0.2-0.6-0.2s-0.4-0.1-0.7-0.1c-0.4,0-0.8,0.1-1.1,0.2
			c-0.4,0.2-0.7,0.4-1,0.7l-1.3,1.6l1.4,1.2l1.3-1.4c0.1-0.1,0.2-0.2,0.3-0.2s0.2-0.1,0.4-0.1c0.1,0,0.2,0,0.4,0.1l2,1l-1.4,1.2
			c-0.5,0.4-1.1,0.7-1.9,0.7h-2.9h-1.9h0h-1.9h-1.9h-1.9h0h-1.9H62c0,0,0,0,0,0c0,0,0,0,0,0h-0.8c-0.2,0-0.3-0.1-0.4-0.2
			s-0.2-0.3-0.2-0.5V5.9h-2v6.9c0,0.5,0.1,0.9,0.3,1.3c0.2,0.4,0.6,0.7,1,1h0c0.4,0.2,0.9,0.4,1.4,0.4H62c0,0,0,0,0,0c0,0,0,0,0,0
			h1.9h1.9h0h1.9h1.9h1.9h0h1.9c0,0,0,0,0,0c0,0,0,0,0,0h2.7c0.6,0,1.2-0.1,1.8-0.3c0.6-0.2,1.1-0.5,1.5-0.9l2.3-2.1h1.6v-2H81.8z"
            />
            <rect x="75.3" y="16.7" class="st0" width="1.8" height="1.8"/>
            <rect x="77.9" y="16.7" class="st0" width="1.8" height="1.8"/>
	</g>
</g>
</svg>
