<?xml version="1.0" encoding="UTF-8"?>
<svg id="Layer_2" data-name="Layer 2" xmlns="http://www.w3.org/2000/svg"
     viewBox="0 0 997.83 257">
    <defs>
        <style>
            .cls-1 {
            fill: #fff;
            }

            .cls-2 {
            clip-path: url(#clippath);
            }

            .cls-3 {
            fill: none;
            }

            .cls-4 {
            fill: #374152;
            }

            .cls-5 {
            fill: url(#linear-gradient);
            }
        </style>
        <clipPath id="clippath">
            <rect class="cls-3" width="997.83" height="257"/>
        </clipPath>
        <linearGradient id="linear-gradient" x1="128.5" y1="258" x2="128.5" y2="1"
                        gradientTransform="translate(0 258) scale(1 -1)" gradientUnits="userSpaceOnUse">
            <stop offset="0" stop-color="#7bcbd4"/>
            <stop offset="1" stop-color="#29c6b7"/>
        </linearGradient>
    </defs>
    <g id="Layer_1-2">
        <g class="cls-2">
            <g>
                <path class="cls-5"
                      d="m128.5,0h0c70.97,0,128.5,57.53,128.5,128.5h0c0,70.97-57.53,128.5-128.5,128.5h0C57.53,257,0,199.47,0,128.5h0C0,57.53,57.53,0,128.5,0Z"/>
                <path class="cls-1"
                      d="m69.56,133.99l87.59-86.99c1.64-1.63,4.27.35,3.17,2.38l-32.6,59.75c-.73,1.33.24,2.96,1.76,2.96h56.34c1.81,0,2.69,2.22,1.36,3.46l-98.73,92.14c-1.77,1.65-4.41-.68-2.98-2.64l46.74-64.47c.96-1.32.01-3.17-1.62-3.17h-59.61c-1.79,0-2.68-2.16-1.41-3.42Z"/>
            </g>
        </g>
        <g>
            <rect class="cls-4" x="325.74" y="41.73" width="25.02" height="117.37"/>
            <path class="cls-4"
                  d="m585.01,91.65l-28.94-19.01,26-26.98-17.29-16.19-34.71,36.92v19.01l39.37,26c3.92,2.45,5.89,5.76,5.89,9.93,0,3.43-1.1,6.25-3.31,8.34-2.21,2.08-4.78,3.19-7.97,3.19h-156.62s-.04,0-.06,0c-.02,0-.04,0-.06,0h-7.36c-2.33,0-4.29-.74-5.76-2.33-1.47-1.59-2.21-3.56-2.21-5.89v-30.42h-25.02v57.77c0,6.38-.49,11.16-1.72,14.59-1.23,3.43-3.56,6.5-6.99,9.44h-.12c-3.43,2.94-9.32,6.75-17.54,11.53l9.44,21.09c11.28-5.64,19.87-10.92,25.76-15.82s10.06-10.55,12.51-16.8c1.92-4.9,3.08-10.94,3.5-17.98,2.45.7,5.17,1.06,8.16,1.06h7.36s.04,0,.06,0c.02,0,.04,0,.06,0h156.37c6.62,0,12.75-1.59,18.4-5.03,5.64-3.43,10.06-7.97,13.37-13.61,3.31-5.64,4.91-11.9,4.91-18.64,0-6.38-1.35-12.26-4.05-17.54s-6.5-9.44-11.41-12.63Z"/>
            <path class="cls-4"
                  d="m899.1,93.36c-1.23,0-2.09-.12-2.82-.49l-37.41-17.42c-2.33-1.1-4.66-2.08-6.87-2.82-2.21-.74-5.03-1.1-8.22-1.1-4.66,0-9.32.86-13.74,2.82-4.54,1.84-8.46,4.78-11.77,8.59l-16.07,19.5,17.42,15.33,16.07-17.78c.98-1.23,2.21-2.21,3.68-2.82s2.94-.98,4.42-.98c1.23,0,2.94.37,5.27,1.35l24.16,11.65-16.92,15.33c-6.13,5.52-13.61,8.34-22.69,8.34h-177.22s-.04,0-.06,0c-.02,0-.04,0-.06,0h-9.57c-2.21,0-4.05-.74-5.52-2.33-1.47-1.59-2.21-3.56-2.21-5.89V41.73h-25.02v84.5c0,5.89,1.35,11.41,4.29,16.43,2.94,5.03,6.87,9.08,11.9,12.02h-.12c5.03,2.94,10.55,4.42,16.56,4.42h9.69s.04,0,.06,0c.02,0,.04,0,.06,0h141.04s.04,0,.06,0c.02,0,.04,0,.06,0h32.62c7.48,0,14.59-1.23,21.59-3.8,6.87-2.58,13-6.25,18.4-11.28l28.21-26.25h19.38v-24.41h-18.64Z"/>
            <rect class="cls-4" x="850.9" y="174.06" width="22.32" height="22.32"/>
            <rect class="cls-4" x="819.5" y="174.06" width="22.44" height="22.32"/>
            <rect class="cls-4" x="835.57" y="205.21" width="22.32" height="22.32"/>
        </g>
    </g>
</svg>