<?xml version="1.0" encoding="utf-8"?>
<!-- Generator: Adobe Illustrator 27.2.0, SVG Export Plug-In . SVG Version: 6.00 Build 0)  -->
<svg xmlns:xlink="http://www.w3.org/1999/xlink" version="1.1" id="Layer_1" xmlns="http://www.w3.org/2000/svg" x="0px"
     y="0px"
     viewBox="0 0 998 257" style="enable-background:new 0 0 998 257;" xml:space="preserve">
<style type="text/css">
	.st0{clip-path:url(#SVGID_00000120542914637351554050000016829623981758684323_);}
	.st1{fill:url(#SVGID_00000103981915458421227940000001051228366218294689_);}
	.st2{fill:#FFFFFF;}
	.st3{fill:#374152;}
</style>
    <g>
	<defs>
		<rect id="SVGID_1_" width="997.8" height="257"/>
	</defs>
        <clipPath id="SVGID_00000014599653965978443640000014011498666631150264_">
		<use xlink:href="#SVGID_1_" style="overflow:visible;"/>
	</clipPath>
        <g style="clip-path:url(#SVGID_00000014599653965978443640000014011498666631150264_);">
		
			<linearGradient id="SVGID_00000150072498832181896640000010340242063379258269_"
                            gradientUnits="userSpaceOnUse" x1="128.5" y1="258" x2="128.5" y2="1"
                            gradientTransform="matrix(1 0 0 -1 0 258)">
			<stop offset="0" style="stop-color:#7BCBD4"/>
                <stop offset="1" style="stop-color:#29C6B7"/>
		</linearGradient>
            <path style="fill:url(#SVGID_00000150072498832181896640000010340242063379258269_);" d="M128.5,0L128.5,0
			C199.5,0,257,57.5,257,128.5l0,0c0,71-57.5,128.5-128.5,128.5l0,0C57.5,257,0,199.5,0,128.5l0,0C0,57.5,57.5,0,128.5,0z"/>
            <path class="st2" d="M69.6,134l87.6-87c1.6-1.6,4.3,0.4,3.2,2.4l-32.6,59.8c-0.7,1.3,0.2,3,1.8,3h56.3c1.8,0,2.7,2.2,1.4,3.5
			l-98.7,92.1c-1.8,1.7-4.4-0.7-3-2.6l46.7-64.5c1-1.3,0-3.2-1.6-3.2H71C69.2,137.4,68.3,135.2,69.6,134z"/>
	</g>
</g>
    <g>
	<rect x="344.2" y="41.7" class="st3" width="25" height="117.4"/>
        <path class="st3" d="M603.5,91.6l-28.9-19l26-27l-17.3-16.2l-34.7,36.9v19l39.4,26c3.9,2.5,5.9,5.8,5.9,9.9c0,3.4-1.1,6.3-3.3,8.3
		c-2.2,2.1-4.8,3.2-8,3.2h-39.1H520h-0.1h-23.4h-23.5h-23.4h-0.1h-23.4c0,0,0,0-0.1,0c0,0,0,0-0.1,0h-7.4c-2.3,0-4.3-0.7-5.8-2.3
		c-1.5-1.6-2.2-3.6-2.2-5.9V94.2h-17.5h-7.5V152c0,6.4-0.5,11.2-1.7,14.6c-1.2,3.4-3.6,6.5-7,9.4h-0.1c-3.4,2.9-9.3,6.7-17.5,11.5
		l9.4,21.1c11.3-5.6,19.9-10.9,25.8-15.8s10.1-10.5,12.5-16.8c1.9-4.9,3.1-10.9,3.5-18c2.5,0.7,5.2,1.1,8.2,1.1h7.4c0,0,0,0,0.1,0
		c0,0,0,0,0.1,0h23.4h0.1h23.4h23.5h23.4h0.1h23.4h0l0,0h38.9c6.6,0,12.8-1.6,18.4-5c5.6-3.4,10.1-8,13.4-13.6
		c3.3-5.6,4.9-11.9,4.9-18.6c0-6.4-1.3-12.3-4-17.5S608.4,94.8,603.5,91.6z"/>
        <path class="st3" d="M917.6,93.4c-1.2,0-2.1-0.1-2.8-0.5l-37.4-17.4c-2.3-1.1-4.7-2.1-6.9-2.8c-2.2-0.7-5-1.1-8.2-1.1
		c-4.7,0-9.3,0.9-13.7,2.8c-4.5,1.8-8.5,4.8-11.8,8.6l-16.1,19.5l17.4,15.3l16.1-17.8c1-1.2,2.2-2.2,3.7-2.8s2.9-1,4.4-1
		c1.2,0,2.9,0.4,5.3,1.3l24.2,11.7l-16.9,15.3c-6.1,5.5-13.6,8.3-22.7,8.3h-36.2h-23.4h-0.1h-23.4h0h0h-23.5h-23.4h-0.1h-23.4h-23.5
		c0,0,0,0-0.1,0c0,0,0,0-0.1,0h-9.6c-2.2,0-4-0.7-5.5-2.3c-1.5-1.6-2.2-3.6-2.2-5.9V41.7h-25v84.5c0,5.9,1.3,11.4,4.3,16.4
		c2.9,5,6.9,9.1,11.9,12h-0.1c5,2.9,10.5,4.4,16.6,4.4h9.7c0,0,0,0,0.1,0c0,0,0,0,0.1,0h23.5h23.4h0.1h23.4h23.5h0h0h23.4h0.1h23.4
		c0,0,0,0,0.1,0c0,0,0,0,0.1,0h32.6c7.5,0,14.6-1.2,21.6-3.8c6.9-2.6,13-6.3,18.4-11.3l28.2-26.2h19.4V93.4H917.6z"/>
        <rect x="869.4" y="174.1" class="st3" width="22.3" height="22.3"/>
        <rect x="838" y="174.1" class="st3" width="22.4" height="22.3"/>
        <rect x="854" y="205.2" class="st3" width="22.3" height="22.3"/>
</g>
</svg>
